<svg width="46" height="67" viewBox="0 0 46 67" fill="none" xmlns="http://www.w3.org/2000/svg">
<path d="M11.0957 59.3798L11.1337 33.637L37.7904 61.6842L37.8481 22.5727L32.2217 22.5644L32.184 48.0863L5.52734 20.0391L5.46928 59.3715L11.0957 59.3798Z" fill="#54EBFF"/>
<path d="M5.27344 19.8096L5.21504 59.3711L13.3882 59.3832C18.8962 59.3913 23.2204 58.8639 27.8449 55.6085C33.0622 51.9388 35.795 46.2488 35.8047 39.6651C35.8144 33.0814 33.0393 27.324 28.2473 23.6988C23.8694 20.4302 19.073 19.8299 13.565 19.8218L5.27344 19.8096ZM11.3061 25.5125L13.912 25.5164C16.8141 25.5206 21.0187 25.7641 24.4501 28.2603C27.2899 30.3404 29.7714 34.4367 29.7637 39.6562C29.7557 45.0537 27.0849 48.8457 24.3575 50.9177C20.9186 53.463 16.8317 53.6943 13.8704 53.6899L11.2645 53.686L11.3061 25.5125Z" fill="white"/>
<path d="M5.17969 20.4111L8.31755 23.1911L11.2685 25.8321L11.2189 59.3804L5.12217 59.3714L5.17969 20.4111Z" fill="#54EBFF"/>
</svg>
