<svg xmlns="http://www.w3.org/2000/svg" width="95" height="88" viewBox="0 0 95 88" fill="none">
<path fill-rule="evenodd" clip-rule="evenodd" d="M0 44.0361V88H11.0678C25.371 88 30.3983 87.6187 36.2727 86.088C41.2274 84.7967 46.4668 82.3137 50.9404 79.1368C53.4896 77.3262 57.7079 73.1189 59.7202 70.3794C61.1967 68.3697 61.4218 68.1746 61.8485 68.5335C62.111 68.7544 63.3621 69.761 64.6288 70.7707C65.8955 71.7802 66.9966 72.6758 67.0758 72.7606C67.1549 72.8457 68.839 74.208 70.8182 75.7878C72.7973 77.3676 74.4814 78.7328 74.5606 78.8213C74.6398 78.9095 77.1011 80.9109 80.0303 83.2686C82.9595 85.6262 85.3992 87.6552 85.4519 87.7776C85.9908 89.0261 86.0758 84.1409 86.0758 51.9381V15.8762H90.5379C93.2816 15.8762 95 15.767 95 15.5925C95 15.4365 91.5512 11.8645 87.3361 7.65432L79.6722 0L71.7192 7.93793L63.7666 15.8762H68.1559H72.5455V37.3185C72.5455 58.2856 72.5334 58.7522 72.0019 58.3666C70.0098 56.9218 67.378 54.7532 67.247 54.4486C67.1613 54.2489 67.2819 52.6409 67.5151 50.8749C70.2873 29.8946 60.0175 10.7835 42.1742 3.71912C34.7821 0.7925 28.6658 0.072124 11.2117 0.072124H0V44.0361ZM24.6136 13.2978C37.506 14.498 45.1368 19.0177 50.3117 28.5194C52.444 32.4345 54.3023 39.3937 54.0682 42.5884L53.9773 43.8323L51.9621 42.1881C50.8538 41.2839 49.4288 40.1195 48.7955 39.6006C46.2379 37.5047 40.9214 33.1916 39.5761 32.121C38.7885 31.4943 38.0792 30.9121 38 30.8276C37.9208 30.7429 36.2393 29.3808 34.263 27.8007C32.287 26.2203 30.3439 24.6494 29.9449 24.3095C28.6929 23.2428 22.3757 18.131 19.3455 15.7325C17.7483 14.4682 16.4341 13.3369 16.4252 13.2182C16.4022 12.909 20.9081 12.953 24.6136 13.2978ZM20.2955 34.826C23.4621 37.3892 26.5649 39.896 27.1901 40.3963C28.6877 41.5945 36.9864 48.3293 41.1667 51.739C45.6832 55.4227 45.3625 55.1638 47.9992 57.254C49.2952 58.2812 50.3607 59.2079 50.3673 59.3131C50.3903 59.6961 47.5049 63.7604 46.0946 65.331C43.5471 68.1685 39.4685 70.9546 35.697 72.4339C31.4666 74.0936 24.8272 75.0611 17.6326 75.0663L13.5303 75.0694V52.1809C13.5303 30.4075 13.5548 29.3136 14.0341 29.7291C14.311 29.9693 17.1288 32.2629 20.2955 34.826Z" fill="#000000"/>
</svg>